<?xml version="1.0" encoding="utf-8"?><svg xmlns="http://www.w3.org/2000/svg" viewBox="0 0 334.63 64.051" width="334.63" height="64.05"><defs><style>.bgcls-1{fill:#1f2d3f}</style></defs><g id="bgAR_Bridge_logo_fin" data-name="AR Bridge_logo fin" transform="translate(.031 .025)"><g id="bgGroup_436" data-name="Group 436"><path id="bgPath_28197" data-name="Path 28197" class="bgcls-1" d="M113.5 15.2l9.4 33.9h-6.6l-2-7.5h-11.9l-2 7.5h-6.6l9.4-33.9h10.3zm-.8 20.5l-4.1-15.2h-.6l-4.1 15.2z"/><path id="bgPath_28198" data-name="Path 28198" class="bgcls-1" d="M144.3 36l6.9 13.1h-7.1l-6.2-12.5h-5.7V49h-6.4V15.2h14.9c6.4 0 10.8 4.2 10.8 10.7a10.047 10.047 0 0 1-7.2 10.1zm-12.1-5.5h7.9c3 0 5.1-1.8 5.1-4.6 0-2.9-2-4.6-5.1-4.6h-7.9z"/><path id="bgPath_28199" data-name="Path 28199" class="bgcls-1" d="M184.6 15.2c5.9 0 10 3.3 10 9.1a7.328 7.328 0 0 1-5.7 7.5v.6a7.364 7.364 0 0 1 5.7 7.6c0 5.6-4.2 9.1-10 9.1h-15.4V15.2zM175.5 29h8.4c2.7 0 4.6-1.3 4.6-4s-1.8-3.9-4.6-3.9h-8.4zm0 14h8.4c2.7 0 4.6-1.3 4.6-4s-1.8-4-4.6-4h-8.4z"/><path id="bgPath_28200" data-name="Path 28200" class="bgcls-1" d="M204.7 28.5h.6c.9-2.7 3-3.6 6-3.6h2.4v5.6h-3.6c-3.1 0-5.3 1.6-5.3 5V49h-6.1V25h6v3.5z"/><path id="bgPath_28201" data-name="Path 28201" class="bgcls-1" d="M219.7 13.9a4.2 4.2 0 1 1-4.3 4.2 4.069 4.069 0 0 1 4.3-4.2zm3 35.1h-6.1V25h6.1z"/><path id="bgPath_28202" data-name="Path 28202" class="bgcls-1" d="M251.8 49h-6v-3.4h-.7a8.38 8.38 0 0 1-7.6 4.1c-6 0-11-5.3-11-12.7s5-12.7 11-12.7c4.3 0 6.4 2 7.6 4.1h.6V15.2h6.1V49zm-19.2-12c0 4.6 2.9 7.3 6.6 7.3 3.8 0 6.6-2.7 6.6-7.3s-2.8-7.3-6.6-7.3c-3.7.1-6.6 2.7-6.6 7.3z"/><path id="bgPath_28203" data-name="Path 28203" class="bgcls-1" d="M281.2 25v29a4.492 4.492 0 0 1-4.7 4.6h-18.2v-5.3h15.5c.9 0 1.4-.5 1.4-1.5v-7.1h-.6a8.38 8.38 0 0 1-7.6 4.1c-6 0-11-5.1-11-12.3s5-12.3 11-12.3c4.3 0 6.4 2 7.6 4.1h.7V25zm-6.1 11.7c0-4.4-2.8-6.9-6.6-6.9-3.7 0-6.6 2.4-6.6 6.9s2.9 6.9 6.6 6.9c3.8-.1 6.6-2.6 6.6-6.9z"/><path id="bgPath_28204" data-name="Path 28204" class="bgcls-1" d="M297.4 24.4c7 0 11.9 4.9 11.9 12.1v2.4h-17.8a5.664 5.664 0 0 0 5.9 5.6 6.056 6.056 0 0 0 5.8-3.6l5.2 3a11.932 11.932 0 0 1-10.9 5.9c-7.2 0-12.3-5.4-12.3-12.9 0-7.3 5.1-12.5 12.2-12.5zm5.6 10.2a5.268 5.268 0 0 0-5.6-4.9 5.4 5.4 0 0 0-5.8 4.9z"/></g><g id="bgGroup_440" data-name="Group 440"><g id="bgGroup_439" data-name="Group 439"><path id="bgPath_28205" data-name="Path 28205" class="bgcls-1" d="M318.9 23.5h-5.2v-1.6h4.2a5.437 5.437 0 0 0 0-1.8h-3.6a4.709 4.709 0 0 1 0-5.1h4.9v1.6h-3.9a5.437 5.437 0 0 0 0 1.8h3.6a4.353 4.353 0 0 1 0 5.1z"/><g id="bgGroup_437" data-name="Group 437"><path id="bgPath_28206" data-name="Path 28206" class="bgcls-1" d="M326.1 15a9.126 9.126 0 0 1 0 8.5h-1.9a9.126 9.126 0 0 0 0-8.5z"/></g><path id="bgPath_28207" data-name="Path 28207" class="bgcls-1" d="M322.3 21.9h1.3v1.6h-3V15h3v1.7h-1.3z"/><g id="bgGroup_438" data-name="Group 438"><path id="bgRectangle_3948" data-name="Rectangle 3948" class="bgcls-1" transform="translate(331.7 15)" d="M0 0h2.9v1.6H0z"/><path id="bgPath_28208" data-name="Path 28208" class="bgcls-1" d="M329.1 23.5a9.126 9.126 0 0 1 0-8.5h1.9a9.126 9.126 0 0 0 0 8.5z"/></g><path id="bgPath_28209" data-name="Path 28209" class="bgcls-1" d="M334.5 18.5v5h-2.8v-1.6h1.1v-1.8h-1.1v-1.6z"/></g></g><g id="bgGroup_441" data-name="Group 441"><path id="bgPath_28210" data-name="Path 28210" class="bgcls-1" d="M12.9 15H4.4A35.044 35.044 0 0 0 1 40.5h8.5A35.044 35.044 0 0 1 12.9 15z"/><path id="bgPath_28211" data-name="Path 28211" class="bgcls-1" d="M63.9 49h8.5a35.508 35.508 0 0 0 3.3-25.5h-8.5A35.378 35.378 0 0 1 63.9 49z"/></g><path id="bgPath_28212" data-name="Path 28212" class="bgcls-1" d="M12.9 49a53.09 53.09 0 0 0 51 0v8.5a53.09 53.09 0 0 1-51 0V49z"/><path id="bgPath_28213" data-name="Path 28213" class="bgcls-1" d="M63.9 15a53.09 53.09 0 0 0-51 0V6.5a53.09 53.09 0 0 1 51 0z"/><path id="bgRectangle_3949" data-name="Rectangle 3949" class="bgcls-1" transform="translate(29.9 23.5)" d="M0 0h17v17H0z"/></g></svg>