<?xml version="1.0" encoding="utf-8"?><svg id="afSDG_logo_footer" data-name="SDG logo footer" xmlns="http://www.w3.org/2000/svg" viewBox="0 0 49.334 20" width="49.33" height="20"><defs><style>.afcls-1{fill:#fcc467}</style></defs><path id="afPath_33" data-name="Path 33" class="afcls-1" d="M144.667 34.1h-12v-4h10a4.25 4.25 0 0 0 0-4H134c-2.667-3.333-2.667-8 0-12h11.333v4H136a4.25 4.25 0 0 0 0 4h8.667c2.666 4 2.666 8.667 0 12z" transform="translate(-132 -14.1)"/><g id="afGroup_26" data-name="Group 26" transform="translate(24.667)"><path id="afPath_34" data-name="Path 34" class="afcls-1" d="M140.367 14.1a21.25 21.25 0 0 1 0 20H135.7a21.25 21.25 0 0 0 0-20z" transform="translate(-135.7 -14.1)"/></g><path id="afPath_35" data-name="Path 35" class="afcls-1" d="M138.5 30.767h3.333V34.1H134.5v-20h7.333v4H138.5z" transform="translate(-117.833 -14.1)"/><g id="afGroup_27" data-name="Group 27" transform="translate(34.167)"><path id="afRectangle_21" data-name="Rectangle 21" class="afcls-1" transform="translate(8.5)" d="M0 0h6.667v4H0z"/><path id="afPath_36" data-name="Path 36" class="afcls-1" d="M139.625 34.1a21.25 21.25 0 0 1 0-20h4.667a21.251 21.251 0 0 0 0 20z" transform="translate(-137.125 -14.1)"/></g><path id="afPath_37" data-name="Path 37" class="afcls-1" d="M145.067 15.4v11.333H138.4V23.4h2.667v-4.667H138.4V15.4z" transform="translate(-95.733 -6.733)"/></svg>